<svg xmlns="http://www.w3.org/2000/svg" width="48" height="48"><path d="M17.995 24c0 3.311 2.689 6 6 6s6-2.689 6-6v-.05a3.49 3.49 0 0 1-2.5 1.05c-1.931 0-3.5-1.57-3.5-3.5 0-1.39.819-2.6 1.99-3.16a6.005 6.005 0 0 0-7.99 5.66zm28.66-3.41C42.935 15.86 33.875 8 24.005 8c-9.88 0-18.949 7.86-22.67 12.59-.84 1.08-1.3 2.25-1.33 3.41.03 1.16.49 2.33 1.33 3.41C5.056 32.141 14.115 40 23.995 40s18.939-7.859 22.66-12.59c.85-1.08 1.31-2.25 1.34-3.41-.03-1.16-.49-2.33-1.34-3.41zM23.995 34c-5.52 0-10-4.48-10-10s4.48-10 10-10 10 4.48 10 10-4.48 10-10 10z"/></svg>